{
  "accessors": [
    {
      "bufferView": 2,
      "componentType": 5126,
      "count": 10,
      "max": [
        -1.4738187789916992,
        1.5487760305404663,
        1.4148223400115967
      ],
      "min": [
        -2.0527093410491943,
        1.0866373777389526,
        -1.6610093116760254
      ],
      "type": "VEC3"
    },
    {
      "bufferView": 2,
      "byteOffset": 120,
      "componentType": 5126,
      "count": 10,
      "max": [
        -0.6833100914955139,
        0.07959102839231491,
        0.7257773280143738
      ],
      "min": [
        -0.6833112239837646,
        0.07959096133708954,
        -0.725776195526123
      ],
      "type": "VEC3"
    },
    {
      "bufferView": 1,
      "componentType": 5126,
      "count": 10,
      "max": [
        0.625,
        0.75
      ],
      "min": [
        0.625,
        0.5
      ],
      "type": "VEC2"
    },
    {
      "bufferView": 0,
      "componentType": 5125,
      "count": 18,
      "type": "SCALAR"
    },
    {
      "bufferView": 2,
      "byteOffset": 240,
      "componentType": 5126,
      "count": 374,
      "max": [
        4.8629374504089355,
        4.435306549072266,
        2.8810150623321533
      ],
      "min": [
        -8.996520042419434,
        -5.197327136993408,
        -9.185836791992188
      ],
      "type": "VEC3"
    },
    {
      "bufferView": 2,
      "byteOffset": 4728,
      "componentType": 5126,
      "count": 374,
      "max": [
        0.11209626495838165,
        0.9894386529922485,
        0.9998862743377686
      ],
      "min": [
        -0.9048636555671692,
        -0.9867860078811646,
        -0.9998875856399536
      ],
      "type": "VEC3"
    },
    {
      "bufferView": 1,
      "byteOffset": 80,
      "componentType": 5126,
      "count": 374,
      "max": [
        0.6250000596046448,
        1.0
      ],
      "min": [
        0.0,
        0.0
      ],
      "type": "VEC2"
    },
    {
      "bufferView": 0,
      "byteOffset": 72,
      "componentType": 5125,
      "count": 1767,
      "type": "SCALAR"
    },
    {
      "bufferView": 2,
      "byteOffset": 9216,
      "componentType": 5126,
      "count": 2019,
      "max": [
        15.253066062927246,
        9.967096328735352,
        13.045389175415039
      ],
      "min": [
        -11.492003440856934,
        -6.74501895904541,
        -13.275894165039063
      ],
      "type": "VEC3"
    },
    {
      "bufferView": 2,
      "byteOffset": 33444,
      "componentType": 5126,
      "count": 2019,
      "max": [
        0.9444193840026855,
        0.9999442100524902,
        1.0
      ],
      "min": [
        -0.950663149356842,
        -0.999613344669342,
        -1.0
      ],
      "type": "VEC3"
    },
    {
      "bufferView": 1,
      "byteOffset": 3072,
      "componentType": 5126,
      "count": 2019,
      "max": [
        0.875,
        1.0
      ],
      "min": [
        0.125,
        0.0
      ],
      "type": "VEC2"
    },
    {
      "bufferView": 0,
      "byteOffset": 7140,
      "componentType": 5125,
      "count": 3060,
      "type": "SCALAR"
    },
    {
      "bufferView": 2,
      "byteOffset": 57672,
      "componentType": 5126,
      "count": 662,
      "max": [
        14.703044891357422,
        9.476716995239258,
        12.585723876953125
      ],
      "min": [
        -10.631851196289063,
        -6.577633857727051,
        -12.816226959228516
      ],
      "type": "VEC3"
    },
    {
      "bufferView": 2,
      "byteOffset": 65616,
      "componentType": 5126,
      "count": 662,
      "max": [
        0.9871802926063538,
        0.9996866583824158,
        1.0
      ],
      "min": [
        -0.9248228669166565,
        -0.999613344669342,
        -1.0
      ],
      "type": "VEC3"
    },
    {
      "bufferView": 1,
      "byteOffset": 19224,
      "componentType": 5126,
      "count": 662,
      "max": [
        0.6786786317825317,
        0.9745944738388062
      ],
      "min": [
        0.3223835825920105,
        0.0
      ],
      "type": "VEC2"
    },
    {
      "bufferView": 0,
      "byteOffset": 19380,
      "componentType": 5125,
      "count": 1044,
      "type": "SCALAR"
    },
    {
      "bufferView": 2,
      "byteOffset": 73560,
      "componentType": 5126,
      "count": 12557,
      "max": [
        -4.894289016723633,
        0.10063871741294861,
        1.6995904445648193
      ],
      "min": [
        -5.829863548278809,
        -1.0881092548370361,
        -1.8029873371124268
      ],
      "type": "VEC3"
    },
    {
      "bufferView": 2,
      "byteOffset": 224244,
      "componentType": 5126,
      "count": 12557,
      "max": [
        0.9999374151229858,
        0.9945614337921143,
        1.0
      ],
      "min": [
        -0.9999374151229858,
        -0.9945603609085083,
        -1.0
      ],
      "type": "VEC3"
    },
    {
      "bufferView": 1,
      "byteOffset": 24520,
      "componentType": 5126,
      "count": 12557,
      "max": [
        1.0,
        1.0000001192092896
      ],
      "min": [
        0.0,
        0.0
      ],
      "type": "VEC2"
    },
    {
      "bufferView": 0,
      "byteOffset": 23556,
      "componentType": 5125,
      "count": 20052,
      "type": "SCALAR"
    },
    {
      "bufferView": 2,
      "byteOffset": 374928,
      "componentType": 5126,
      "count": 1139,
      "max": [
        -5.090513706207275,
        -0.058756500482559204,
        1.6385445594787598
      ],
      "min": [
        -5.790440559387207,
        -1.0605162382125854,
        -1.0037376880645752
      ],
      "type": "VEC3"
    },
    {
      "bufferView": 2,
      "byteOffset": 388596,
      "componentType": 5126,
      "count": 1139,
      "max": [
        0.9713126420974731,
        0.868100643157959,
        0.0009511172538623214
      ],
      "min": [
        -0.9656524062156677,
        -0.2716223895549774,
        -0.681226372718811
      ],
      "type": "VEC3"
    },
    {
      "bufferView": 1,
      "byteOffset": 124976,
      "componentType": 5126,
      "count": 1139,
      "max": [
        0.6250000596046448,
        0.9945800304412842
      ],
      "min": [
        0.0,
        0.0
      ],
      "type": "VEC2"
    },
    {
      "bufferView": 0,
      "byteOffset": 103764,
      "componentType": 5125,
      "count": 2343,
      "type": "SCALAR"
    },
    {
      "bufferView": 2,
      "byteOffset": 402264,
      "componentType": 5126,
      "count": 936,
      "max": [
        -4.64556360244751,
        0.3089021146297455,
        1.8569483757019043
      ],
      "min": [
        -5.8805389404296875,
        -1.2886220216751099,
        -2.100517988204956
      ],
      "type": "VEC3"
    },
    {
      "bufferView": 2,
      "byteOffset": 413496,
      "componentType": 5126,
      "count": 936,
      "max": [
        0.965171217918396,
        0.9948769807815552,
        0.9999193549156189
      ],
      "min": [
        -0.9652819037437439,
        -0.9948770999908447,
        -0.9999176859855652
      ],
      "type": "VEC3"
    },
    {
      "bufferView": 1,
      "byteOffset": 134088,
      "componentType": 5126,
      "count": 936,
      "max": [
        0.8750000596046448,
        1.0
      ],
      "min": [
        0.125,
        0.0
      ],
      "type": "VEC2"
    },
    {
      "bufferView": 0,
      "byteOffset": 113136,
      "componentType": 5125,
      "count": 1836,
      "type": "SCALAR"
    },
    {
      "bufferView": 2,
      "byteOffset": 424728,
      "componentType": 5126,
      "count": 540,
      "max": [
        -0.7041916847229004,
        1.7700482606887817,
        1.4605348110198975
      ],
      "min": [
        -4.458695411682129,
        -1.8064299821853638,
        -1.7067232131958008
      ],
      "type": "VEC3"
    },
    {
      "bufferView": 2,
      "byteOffset": 431208,
      "componentType": 5126,
      "count": 540,
      "max": [
        0.9789422154426575,
        1.0,
        1.0
      ],
      "min": [
        -0.9952257871627808,
        -0.9994928240776062,
        -1.0
      ],
      "type": "VEC3"
    },
    {
      "bufferView": 1,
      "byteOffset": 141576,
      "componentType": 5126,
      "count": 540,
      "max": [
        0.875480055809021,
        1.0
      ],
      "min": [
        0.12452042102813721,
        0.12452035397291183
      ],
      "type": "VEC2"
    },
    {
      "bufferView": 0,
      "byteOffset": 120480,
      "componentType": 5125,
      "count": 924,
      "type": "SCALAR"
    },
    {
      "bufferView": 2,
      "byteOffset": 437688,
      "componentType": 5126,
      "count": 647,
      "max": [
        -0.8431625366210938,
        1.8125723600387573,
        1.4690961837768555
      ],
      "min": [
        -4.545516490936279,
        -1.8064299821853638,
        -1.7779254913330078
      ],
      "type": "VEC3"
    },
    {
      "bufferView": 2,
      "byteOffset": 445452,
      "componentType": 5126,
      "count": 647,
      "max": [
        0.9887772798538208,
        0.9978909492492676,
        1.0
      ],
      "min": [
        -0.9952980875968933,
        -0.997986912727356,
        -1.0
      ],
      "type": "VEC3"
    },
    {
      "bufferView": 1,
      "byteOffset": 145896,
      "componentType": 5126,
      "count": 647,
      "max": [
        0.9900000095367432,
        1.0
      ],
      "min": [
        0.01000000536441803,
        0.0
      ],
      "type": "VEC2"
    },
    {
      "bufferView": 0,
      "byteOffset": 124176,
      "componentType": 5125,
      "count": 1248,
      "type": "SCALAR"
    },
    {
      "bufferView": 2,
      "byteOffset": 453216,
      "componentType": 5126,
      "count": 5111,
      "max": [
        15.253066062927246,
        9.967096328735352,
        13.045389175415039
      ],
      "min": [
        -10.766436576843262,
        -6.74501895904541,
        -13.275894165039063
      ],
      "type": "VEC3"
    },
    {
      "bufferView": 2,
      "byteOffset": 514548,
      "componentType": 5126,
      "count": 5111,
      "max": [
        1.0,
        0.9999179840087891,
        1.0
      ],
      "min": [
        -1.0,
        -1.0,
        -1.0
      ],
      "type": "VEC3"
    },
    {
      "bufferView": 1,
      "byteOffset": 151072,
      "componentType": 5126,
      "count": 5111,
      "max": [
        1.0,
        1.0547325611114502
      ],
      "min": [
        0.0,
        0.0
      ],
      "type": "VEC2"
    },
    {
      "bufferView": 0,
      "byteOffset": 129168,
      "componentType": 5125,
      "count": 8103,
      "type": "SCALAR"
    },
    {
      "bufferView": 3,
      "componentType": 5126,
      "count": 73,
      "max": [
        3.0
      ],
      "min": [
        0.0
      ],
      "type": "SCALAR"
    },
    {
      "bufferView": 4,
      "componentType": 5126,
      "count": 73,
      "max": [
        0.0,
        2.171804904937744,
        -0.0
      ],
      "min": [
        0.0,
        -0.10212469100952148,
        -0.0
      ],
      "type": "VEC3"
    },
    {
      "bufferView": 3,
      "byteOffset": 292,
      "componentType": 5126,
      "count": 73,
      "max": [
        3.0
      ],
      "min": [
        0.0
      ],
      "type": "SCALAR"
    },
    {
      "bufferView": 5,
      "componentType": 5126,
      "count": 73,
      "max": [
        0.017448436468839645,
        0.0,
        0.08222507685422897,
        1.0
      ],
      "min": [
        0.0,
        -0.00037243578117340803,
        -0.021336834877729416,
        0.9966138005256653
      ],
      "type": "VEC4"
    },
    {
      "bufferView": 3,
      "byteOffset": 584,
      "componentType": 5126,
      "count": 196,
      "max": [
        8.125
      ],
      "min": [
        0.0
      ],
      "type": "SCALAR"
    },
    {
      "bufferView": 4,
      "byteOffset": 876,
      "componentType": 5126,
      "count": 196,
      "max": [
        6.767917633056641,
        14.00880241394043,
        -0.0
      ],
      "min": [
        -7.294175624847412,
        -0.10212469100952148,
        -0.21975229680538177
      ],
      "type": "VEC3"
    },
    {
      "bufferView": 3,
      "byteOffset": 1368,
      "componentType": 5126,
      "count": 142,
      "max": [
        7.541666507720947
      ],
      "min": [
        0.0
      ],
      "type": "SCALAR"
    },
    {
      "bufferView": 5,
      "byteOffset": 1168,
      "componentType": 5126,
      "count": 142,
      "max": [
        0.017448434606194496,
        7.628979670215585e-10,
        0.9976692795753479,
        1.0
      ],
      "min": [
        -0.008726535364985466,
        -0.0003724357229657471,
        -1.0,
        7.549790126404332e-08
      ],
      "type": "VEC4"
    }
  ],
  "animations": [
    {
      "channels": [
        {
          "sampler": 0,
          "target": {
            "node": 3,
            "path": "translation"
          }
        },
        {
          "sampler": 1,
          "target": {
            "node": 3,
            "path": "rotation"
          }
        }
      ],
      "name": "Hover",
      "samplers": [
        {
          "input": 40,
          "interpolation": "LINEAR",
          "output": 41
        },
        {
          "input": 42,
          "interpolation": "LINEAR",
          "output": 43
        }
      ]
    },
    {
      "channels": [
        {
          "sampler": 0,
          "target": {
            "node": 3,
            "path": "translation"
          }
        },
        {
          "sampler": 1,
          "target": {
            "node": 3,
            "path": "rotation"
          }
        }
      ],
      "name": "Animation  1",
      "samplers": [
        {
          "input": 44,
          "interpolation": "LINEAR",
          "output": 45
        },
        {
          "input": 46,
          "interpolation": "LINEAR",
          "output": 47
        }
      ]
    }
  ],
  "asset": {
    "extras": {
      "author": "M_O (https://sketchfab.com/m_o)",
      "license": "CC-BY-4.0 (http://creativecommons.org/licenses/by/4.0/)",
      "source": "https://sketchfab.com/3d-models/spacecraft-721cf3745abc47d8b4f58cfa7706cacb",
      "title": "Spacecraft"
    },
    "generator": "Sketchfab-12.67.0",
    "version": "2.0"
  },
  "bufferViews": [
    {
      "buffer": 0,
      "byteLength": 161580,
      "name": "floatBufferViews",
      "target": 34963
    },
    {
      "buffer": 0,
      "byteLength": 191960,
      "byteOffset": 161580,
      "byteStride": 8,
      "name": "floatBufferViews",
      "target": 34962
    },
    {
      "buffer": 0,
      "byteLength": 575880,
      "byteOffset": 353540,
      "byteStride": 12,
      "name": "floatBufferViews",
      "target": 34962
    },
    {
      "buffer": 0,
      "byteLength": 1936,
      "byteOffset": 929420,
      "name": "floatBufferViews"
    },
    {
      "buffer": 0,
      "byteLength": 3228,
      "byteOffset": 931356,
      "byteStride": 12,
      "name": "floatBufferViews"
    },
    {
      "buffer": 0,
      "byteLength": 3440,
      "byteOffset": 934584,
      "byteStride": 16,
      "name": "floatBufferViews"
    }
  ],
  "buffers": [
    {
      "byteLength": 938024,
      "uri": "scene.bin"
    }
  ],
  "materials": [
    {
      "doubleSided": true,
      "name": "Black.001",
      "pbrMetallicRoughness": {
        "baseColorFactor": [
          0.0578054302,
          0.0578054302,
          0.0578054302,
          1.0
        ]
      }
    },
    {
      "doubleSided": true,
      "emissiveFactor": [
        0.013699005,
        1.0,
        1.0
      ],
      "name": "Light.001",
      "pbrMetallicRoughness": {
        "baseColorFactor": [
          0.013702083,
          1.0,
          0.7230551289,
          1.0
        ],
        "metallicFactor": 0.2084498778
      }
    },
    {
      "doubleSided": true,
      "emissiveFactor": [
        0.0743806,
        0.0743806,
        0.0743806
      ],
      "name": "Outer.001",
      "pbrMetallicRoughness": {
        "baseColorFactor": [
          0.5583403896,
          0.7912979403,
          0.799102738,
          1.0
        ],
        "metallicFactor": 0.2,
        "roughnessFactor": 0.464286
      }
    },
    {
      "doubleSided": true,
      "name": "Material",
      "pbrMetallicRoughness": {
        "baseColorFactor": [
          0.799102738,
          0.799102738,
          0.799102738,
          1.0
        ],
        "roughnessFactor": 0.5
      }
    },
    {
      "alphaMode": "BLEND",
      "doubleSided": true,
      "name": "Glass.001",
      "pbrMetallicRoughness": {
        "baseColorFactor": [
          0.0610349485,
          0.6714648142,
          0.8959732296,
          0.2084498778
        ]
      }
    },
    {
      "doubleSided": true,
      "emissiveFactor": [
        0.0743806,
        0.0743806,
        0.0743806
      ],
      "name": "Outer.002",
      "pbrMetallicRoughness": {
        "baseColorFactor": [
          0.559626,
          0.792338,
          0.8,
          1.0
        ],
        "metallicFactor": 0.0868382809,
        "roughnessFactor": 0.464286
      }
    },
    {
      "doubleSided": true,
      "emissiveFactor": [
        0.0,
        1.0,
        1.0
      ],
      "name": "Light.002",
      "pbrMetallicRoughness": {
        "baseColorFactor": [
          0.013702083,
          1.0,
          0.7230551289,
          1.0
        ]
      }
    },
    {
      "doubleSided": true,
      "emissiveFactor": [
        0.165778582,
        1.0,
        1.0
      ],
      "name": "panel",
      "pbrMetallicRoughness": {
        "baseColorFactor": [
          0.0578054302,
          0.1682694002,
          0.1651321945,
          1.0
        ]
      }
    },
    {
      "doubleSided": true,
      "name": "Material.004",
      "pbrMetallicRoughness": {
        "baseColorFactor": [
          0.3025415069,
          0.6326027292,
          0.6804882909,
          1.0
        ],
        "roughnessFactor": 0.5
      }
    },
    {
      "alphaMode": "BLEND",
      "doubleSided": true,
      "name": "Material.002",
      "pbrMetallicRoughness": {
        "baseColorFactor": [
          0.0035914774,
          0.4698088881,
          0.605328385,
          0.8590719211
        ]
      }
    }
  ],
  "meshes": [
    {
      "name": "Object_0",
      "primitives": [
        {
          "attributes": {
            "NORMAL": 1,
            "POSITION": 0,
            "TEXCOORD_0": 2
          },
          "indices": 3,
          "material": 3,
          "mode": 4
        }
      ]
    },
    {
      "name": "Object_1",
      "primitives": [
        {
          "attributes": {
            "NORMAL": 5,
            "POSITION": 4,
            "TEXCOORD_0": 6
          },
          "indices": 7,
          "material": 4,
          "mode": 4
        }
      ]
    },
    {
      "name": "Object_2",
      "primitives": [
        {
          "attributes": {
            "NORMAL": 9,
            "POSITION": 8,
            "TEXCOORD_0": 10
          },
          "indices": 11,
          "material": 5,
          "mode": 4
        }
      ]
    },
    {
      "name": "Object_3",
      "primitives": [
        {
          "attributes": {
            "NORMAL": 13,
            "POSITION": 12,
            "TEXCOORD_0": 14
          },
          "indices": 15,
          "material": 6,
          "mode": 4
        }
      ]
    },
    {
      "name": "Object_4",
      "primitives": [
        {
          "attributes": {
            "NORMAL": 17,
            "POSITION": 16,
            "TEXCOORD_0": 18
          },
          "indices": 19,
          "material": 7,
          "mode": 4
        }
      ]
    },
    {
      "name": "Object_5",
      "primitives": [
        {
          "attributes": {
            "NORMAL": 21,
            "POSITION": 20,
            "TEXCOORD_0": 22
          },
          "indices": 23,
          "material": 8,
          "mode": 4
        }
      ]
    },
    {
      "name": "Object_6",
      "primitives": [
        {
          "attributes": {
            "NORMAL": 25,
            "POSITION": 24,
            "TEXCOORD_0": 26
          },
          "indices": 27,
          "material": 9,
          "mode": 4
        }
      ]
    },
    {
      "name": "Object_7",
      "primitives": [
        {
          "attributes": {
            "NORMAL": 29,
            "POSITION": 28,
            "TEXCOORD_0": 30
          },
          "indices": 31,
          "material": 1,
          "mode": 4
        }
      ]
    },
    {
      "name": "Object_8",
      "primitives": [
        {
          "attributes": {
            "NORMAL": 33,
            "POSITION": 32,
            "TEXCOORD_0": 34
          },
          "indices": 35,
          "material": 2,
          "mode": 4
        }
      ]
    },
    {
      "name": "Object_9",
      "primitives": [
        {
          "attributes": {
            "NORMAL": 37,
            "POSITION": 36,
            "TEXCOORD_0": 38
          },
          "indices": 39,
          "material": 0,
          "mode": 4
        }
      ]
    }
  ],
  "nodes": [
    {
      "children": [
        1
      ],
      "matrix": [
        1.0,
        0.0,
        0.0,
        0.0,
        0.0,
        2.220446049250313e-16,
        -1.0,
        0.0,
        0.0,
        1.0,
        2.220446049250313e-16,
        0.0,
        0.0,
        0.0,
        0.0,
        1.0
      ],
      "name": "Sketchfab_model"
    },
    {
      "children": [
        2
      ],
      "name": "root"
    },
    {
      "children": [
        3
      ],
      "matrix": [
        1.0,
        0.0,
        0.0,
        0.0,
        0.0,
        2.220446049250313e-16,
        1.0,
        0.0,
        0.0,
        -1.0,
        2.220446049250313e-16,
        0.0,
        0.0,
        0.0,
        0.0,
        1.0
      ],
      "name": "GLTF_SceneRootNode"
    },
    {
      "children": [
        4,
        5,
        6,
        7,
        8,
        9,
        10,
        11,
        12,
        13
      ],
      "name": "sh_3",
      "scale": [
        0.4625687599182129,
        0.4625687599182129,
        0.34648576378822327
      ],
      "translation": [
        0.0,
        -0.10212469100952148,
        0.0
      ]
    },
    {
      "mesh": 0,
      "name": "Object_4"
    },
    {
      "mesh": 1,
      "name": "Object_5"
    },
    {
      "mesh": 2,
      "name": "Object_6"
    },
    {
      "mesh": 3,
      "name": "Object_7"
    },
    {
      "mesh": 4,
      "name": "Object_8"
    },
    {
      "mesh": 5,
      "name": "Object_9"
    },
    {
      "mesh": 6,
      "name": "Object_10"
    },
    {
      "mesh": 7,
      "name": "Object_11"
    },
    {
      "mesh": 8,
      "name": "Object_12"
    },
    {
      "mesh": 9,
      "name": "Object_13"
    }
  ],
  "scene": 0,
  "scenes": [
    {
      "name": "Sketchfab_Scene",
      "nodes": [
        0
      ]
    }
  ]
}
